<mxfile host="app.diagrams.net" modified="2024-05-04T18:28:10.599Z" agent="Mozilla/5.0 (Macintosh; Intel Mac OS X 10.15; rv:125.0) Gecko/20100101 Firefox/125.0" version="24.3.1" etag="liISg715OulQLJx-7q9u" type="github">
  <diagram name="PÃ¡gina-1" id="_3pBNZFAgkKcC3jPnPfd">
    <mxGraphModel>
      <root>
        <mxCell id="0" />
        <mxCell id="1" parent="0" />
      </root>
    </mxGraphModel>
  </diagram>
</mxfile>
